# Created by Kenney (www.kenney.nl)

mtllib detail_awningWide.mtl

g detail_awningWide

v 0.65 0.37 0.2478913
v 0.65 0.349 0.1778913
v -0.15 0.37 0.2478913
v 0.62 0.349 0.1778913
v 0.62 0.34 0.1478913
v -0.12 0.349 0.1778913
v -0.15 0.349 0.1778913
v -0.12 0.34 0.1478913
v -0.15 0.3256326 0.1
v 0.65 0.3256326 0.1
v 0.65 0.34 0.1478913
v -0.15 0.34 0.1478913
v 0.65 0.4 0.2478913
v -0.15 0.4 0.2478913
v 0.65 0.3556326 0.1
v -0.15 0.3556326 0.1
v -0.12 -3.159169E-18 0.1778913
v -0.12 -3.159169E-18 0.1478913
v -0.15 -3.159169E-18 0.1778913
v -0.15 -3.159169E-18 0.1478913
v 0.65 -3.159169E-18 0.1778913
v 0.62 -3.159169E-18 0.1778913
v 0.62 -3.159169E-18 0.1478913
v 0.65 -3.159169E-18 0.1478913

vn 0 -0.9578263 0.2873479
vn 0 0 1
vn 1 0 0
vn 0 0 -1
vn 0 0.9578263 -0.2873479
vn -1 0 0
vn 0 -1 0

vt 25.59055 13.53368
vt 25.59055 10.65643
vt -5.905512 13.53368
vt 24.40945 10.65643
vt 24.40945 9.423326
vt -4.72441 10.65643
vt -5.905512 10.65643
vt -4.72441 9.423326
vt -5.905512 7.454822
vt 25.59055 7.454822
vt 25.59055 9.423326
vt -5.905512 9.423326
vt 25.59055 14.56693
vt -5.905512 14.56693
vt 25.59055 15.74803
vt -5.905512 15.74803
vt -3.937008 14.00128
vt -3.937008 12.82018
vt -9.759501 15.74803
vt -5.822493 13.38583
vt -7.003595 13.74016
vt -9.759501 14.56693
vt 5.905512 12.82018
vt -25.59055 12.82018
vt 5.905512 14.00128
vt -25.59055 14.00128
vt -25.59055 7.794209
vt -25.59055 13.87307
vt 5.905512 7.794209
vt 5.905512 13.87307
vt 3.937008 12.82018
vt 3.937008 14.00128
vt 5.822493 13.38583
vt 9.759501 15.74803
vt 7.003595 13.74016
vt 9.759501 14.56693
vt -4.72441 7.003595
vt -4.72441 5.822493
vt -5.905512 7.003595
vt -5.905512 5.822493
vt 25.59055 -7.367894E-15
vt 24.40945 -7.367894E-15
vt 25.59055 13.74016
vt 24.40945 13.74016
vt 5.905512 -1.243767E-16
vt 4.72441 -1.243767E-16
vt 5.905512 13.38583
vt 4.72441 13.38583
vt -4.72441 -1.243767E-16
vt -5.905512 -1.243767E-16
vt -4.72441 13.74016
vt -5.905512 13.74016
vt -24.40945 -6.305736E-15
vt -25.59055 -6.305736E-15
vt -24.40945 13.38583
vt -25.59055 13.38583
vt -5.822493 2.63338E-14
vt -7.003595 2.63338E-14
vt 25.59055 7.003595
vt 25.59055 5.822493
vt 24.40945 7.003595
vt 24.40945 5.822493
vt 5.822493 -1.243767E-16
vt 7.003595 -1.243767E-16
vt -5.822493 -1.243767E-16
vt -7.003595 -1.243767E-16

usemtl roof

f 3/3/1 2/2/1 1/1/1
f 2/2/1 3/3/1 4/4/1
f 4/4/1 3/3/1 5/5/1
f 5/5/1 3/3/1 6/6/1
f 6/6/1 3/3/1 7/7/1
f 8/8/1 5/5/1 6/6/1
f 9/9/1 5/5/1 8/8/1
f 10/10/1 5/5/1 9/9/1
f 5/5/1 10/10/1 11/11/1
f 9/9/1 8/8/1 12/12/1
f 13/15/2 3/14/2 1/13/2
f 3/14/2 13/15/2 14/16/2
f 13/19/3 10/18/3 15/17/3
f 10/18/3 13/19/3 11/20/3
f 11/20/3 13/19/3 2/21/3
f 2/21/3 13/19/3 1/22/3
f 16/25/4 10/24/4 9/23/4
f 10/24/4 16/25/4 15/26/4
f 16/29/5 13/28/5 15/27/5
f 13/28/5 16/29/5 14/30/5
f 12/33/6 16/32/6 9/31/6
f 16/32/6 12/33/6 14/34/6
f 14/34/6 12/33/6 7/35/6
f 14/34/6 7/35/6 3/36/6

usemtl border

f 19/39/7 18/38/7 17/37/7
f 18/38/7 19/39/7 20/40/7
f 2/43/2 22/42/2 21/41/2
f 22/42/2 2/43/2 4/44/2
f 12/47/4 18/46/4 20/45/4
f 18/46/4 12/47/4 8/48/4
f 6/51/2 19/50/2 17/49/2
f 19/50/2 6/51/2 7/52/2
f 5/55/4 24/54/4 23/53/4
f 24/54/4 5/55/4 11/56/4
f 2/21/3 24/57/3 11/20/3
f 24/57/3 2/21/3 21/58/3
f 22/61/7 24/60/7 21/59/7
f 24/60/7 22/61/7 23/62/7
f 19/64/6 12/33/6 20/63/6
f 12/33/6 19/64/6 7/35/6
f 23/63/6 4/35/6 5/33/6
f 4/35/6 23/63/6 22/64/6
f 6/21/3 18/65/3 8/20/3
f 18/65/3 6/21/3 17/66/3

