# Created by Kenney (www.kenney.nl)

mtllib detail_overhang.mtl

g detail_overhang

v -0.22 0.4 0.08
v -0.22 0.35 0.08
v -0.22 0.4 0.25
v -0.22 0.35 0.25
v 0.22 0.35 0.08
v 0.22 0.4 0.08
v 0.22 0.35 0.25
v 0.22 0.4 0.25
v -0.25 0.3 0.08
v -0.25 0.4 0.08
v -0.25 0.3 0.25
v -0.25 0.4 0.25
v 0.25 0.3 0.08
v 0.22 0.3 0.11
v 0.25 0.3 0.25
v 0.2412132 0.3 0.05878679
v 0.19 0.3 0.11
v -0.22 0.3 0.11
v -0.19 0.3 0.11
v 0.19 0.3 0.08
v -0.22 0.3 0.08
v -0.2412132 0.3 0.05878679
v 0.22 0.3 0.05
v 0.22 0.3 0.08
v -0.22 0.3 0.05
v -0.19 0.3 0.08
v 0.25 0.4 0.25
v -0.22 0.4 0.05
v 0.22 0.4 0.05
v -0.2412132 0.4 0.05878679
v 0.25 0.4 0.08
v 0.2412132 0.4 0.05878679
v 0.22 -3.159169E-18 0.11
v 0.19 -3.159169E-18 0.11
v -0.22 8.707976E-17 0.08
v -0.22 8.707976E-17 0.11
v 0.22 -3.159169E-18 0.08
v -0.19 8.707976E-17 0.08
v 0.19 -3.159169E-18 0.08
v -0.19 8.707976E-17 0.11

vn 1 0 0
vn -1 0 0
vn 0 -1 0
vn 0 0 1
vn 0 0 -1
vn 0 1 0
vn 0.3826834 0 -0.9238795
vn 0.7071068 0 -0.7071068
vn 0.9238795 0 -0.3826834
vn -0.7071068 0 -0.7071068
vn -0.9238795 0 -0.3826834
vn -0.3826834 0 -0.9238795

vt 0 0
vt 4.330709 11.81102
vt 4.330709 3.428337E-15
vt 3.149606 11.81102
vt -4.330709 -1.243767E-16
vt -4.330709 11.81102
vt -3.149606 -1.243767E-16
vt 8.661417 9.84252
vt 8.661417 3.149606
vt -8.661417 9.84252
vt 7.480315 3.149606
vt 7.480315 4.330709
vt -4.330709 3.428337E-15
vt -3.149606 3.428337E-15
vt 8.661417 -1.243767E-16
vt 7.480315 -1.243767E-16
vt 8.661417 11.81102
vt 7.480315 11.81102
vt 3.149606 3.428337E-15
vt -3.149606 11.81102
vt 8.661417 3.428337E-15
vt 7.480315 3.428337E-15
vt -8.661417 3.149606
vt 8.661417 4.330709
vt 3.149606 -1.243767E-16
vt 4.330709 -1.243767E-16
vt -7.480315 -1.243767E-16
vt -8.661417 -1.243767E-16
vt -7.480315 11.81102
vt -8.661417 11.81102
vt -7.480315 4.330709
vt -7.480315 3.149606
vt -8.661417 4.330709
vt -7.480315 3.428337E-15
vt -8.661417 3.428337E-15

usemtl _defaultMat

f 3/1/1 2/1/1 1/1/1
f 2/1/1 3/1/1 4/1/1
f 7/1/2 6/1/2 5/1/2
f 6/1/2 7/1/2 8/1/2
f 11/4/2 10/3/2 9/2/2
f 10/4/2 11/3/2 12/2/2
f 15/7/3 14/6/3 13/5/3
f 14/7/3 15/6/3 11/5/3
f 13/7/3 14/6/3 16/5/3
f 14/7/3 11/6/3 17/5/3
f 19/7/3 11/6/3 18/5/3
f 17/7/3 11/6/3 20/5/3
f 18/7/3 11/6/3 21/5/3
f 20/7/3 11/6/3 19/5/3
f 21/7/3 11/6/3 22/5/3
f 22/7/3 11/6/3 9/5/3
f 16/7/3 24/6/3 23/5/3
f 24/7/3 16/6/3 14/5/3
f 23/7/3 24/6/3 20/5/3
f 23/7/3 20/6/3 25/5/3
f 25/7/3 20/6/3 26/5/3
f 26/7/3 20/6/3 19/5/3
f 25/7/3 26/6/3 21/5/3
f 25/7/3 21/6/3 22/5/3
f 6/10/4 2/9/4 5/8/4
f 2/10/4 6/9/4 1/8/4
f 15/10/4 7/9/4 11/8/4
f 7/10/4 15/9/4 27/8/4
f 7/10/4 27/9/4 8/8/4
f 11/10/4 4/9/4 12/8/4
f 4/10/4 11/9/4 7/8/4
f 12/10/4 4/9/4 3/8/4
f 28/9/5 23/12/5 25/11/5
f 23/9/5 28/12/5 29/11/5
f 28/14/6 6/6/6 29/13/6
f 6/14/6 28/6/6 1/13/6
f 1/14/6 28/6/6 30/13/6
f 1/14/6 30/6/6 3/13/6
f 3/14/6 30/6/6 12/13/6
f 12/14/6 30/6/6 10/13/6
f 32/14/6 27/6/6 31/13/6
f 27/14/6 32/6/6 8/13/6
f 8/14/6 32/6/6 29/13/6
f 8/14/6 29/6/6 6/13/6
f 27/14/1 13/6/1 31/13/1
f 13/14/1 27/6/1 15/13/1
f 29/14/7 16/6/8 23/13/7
f 16/14/8 29/6/7 32/13/8
f 31/14/9 16/6/8 32/13/8
f 16/14/8 31/6/9 13/13/9
f 9/14/11 30/6/10 22/13/10
f 30/14/10 9/6/11 10/13/11
f 30/14/10 25/6/12 22/13/10
f 25/14/12 30/6/10 28/13/12

usemtl door

f 14/17/4 34/16/4 33/15/4
f 34/16/4 14/17/4 17/18/4
f 36/3/2 21/4/2 35/19/2
f 21/4/2 36/3/2 18/2/2
f 14/6/1 37/7/1 24/20/1
f 37/7/1 14/6/1 33/5/1
f 21/17/5 38/22/5 35/21/5
f 38/22/5 21/17/5 26/18/5
f 2/9/6 7/10/6 5/23/6
f 7/10/6 2/9/6 4/8/6
f 34/12/3 37/9/3 33/24/3
f 37/9/3 34/12/3 39/11/3
f 34/26/2 20/4/2 39/25/2
f 20/4/2 34/26/2 17/2/2
f 20/29/5 37/28/5 39/27/5
f 37/28/5 20/29/5 24/30/5
f 36/33/3 38/32/3 40/31/3
f 38/32/3 36/33/3 35/23/3
f 19/29/4 36/35/4 40/34/4
f 36/35/4 19/29/4 18/30/4
f 19/6/1 38/14/1 26/20/1
f 38/14/1 19/6/1 40/13/1

