# Created by Kenney (www.kenney.nl)

mtllib detail_awning.mtl

g detail_awning

v 0.2 -3.159169E-18 0.1778913
v 0.17 -3.159169E-18 0.1778913
v 0.2 0.349 0.1778913
v 0.17 0.349 0.1778913
v 0.2 -3.159169E-18 0.1478913
v 0.17 -3.159169E-18 0.1478913
v -0.17 0.34 0.1478913
v -0.17 -3.159169E-18 0.1478913
v -0.17 0.349 0.1778913
v -0.17 -3.159169E-18 0.1778913
v -0.2 -3.159169E-18 0.1778913
v -0.2 -3.159169E-18 0.1478913
v 0.17 0.34 0.1478913
v -0.2 0.34 0.1478913
v -0.2 0.349 0.1778913
v 0.2 0.34 0.1478913
v 0.2 0.3556326 0.1
v 0.2 0.3256326 0.1
v 0.2 0.4 0.2478913
v 0.2 0.37 0.2478913
v -0.2 0.37 0.2478913
v -0.2 0.3256326 0.1
v -0.2 0.4 0.2478913
v -0.2 0.3556326 0.1

vn 0 0 1
vn 0 -1 0
vn 1 0 0
vn -1 0 0
vn 0 0 -1
vn 0 -0.9578263 0.2873479
vn 0 0.9578263 -0.2873479

vt 7.874016 -7.367894E-15
vt 6.692914 -7.367894E-15
vt 7.874016 13.74016
vt 6.692914 13.74016
vt 7.874016 7.003595
vt 7.874016 5.822493
vt 6.692914 7.003595
vt 6.692914 5.822493
vt -5.822493 13.38583
vt -5.822493 -1.243767E-16
vt -7.003595 13.74016
vt -7.003595 -1.243767E-16
vt -6.692914 7.003595
vt -6.692914 5.822493
vt -7.874016 7.003595
vt -7.874016 5.822493
vt 5.822493 13.38583
vt 7.003595 13.74016
vt 5.822493 -1.243767E-16
vt 7.003595 -1.243767E-16
vt -6.692914 -1.243767E-16
vt -7.874016 -1.243767E-16
vt -6.692914 13.74016
vt -7.874016 13.74016
vt 7.874016 -1.243767E-16
vt 6.692914 -1.243767E-16
vt 7.874016 13.38583
vt 6.692914 13.38583
vt -6.692914 -6.305736E-15
vt -7.874016 -6.305736E-15
vt -6.692914 13.38583
vt -7.874016 13.38583
vt -5.822493 8.016601E-15
vt -7.003595 8.016601E-15
vt -3.937008 14.00128
vt -3.937008 12.82018
vt -9.759501 15.74803
vt -9.759501 14.56693
vt 7.874016 13.53368
vt 7.874016 10.65643
vt -7.874016 13.53368
vt 6.692914 10.65643
vt 6.692914 9.423326
vt -6.692914 10.65643
vt -7.874016 10.65643
vt -6.692914 9.423326
vt -7.874016 7.454822
vt 7.874016 7.454822
vt 7.874016 9.423326
vt -7.874016 9.423326
vt 7.874016 14.56693
vt -7.874016 14.56693
vt 7.874016 15.74803
vt -7.874016 15.74803
vt 3.937008 12.82018
vt 3.937008 14.00128
vt 9.759501 15.74803
vt 9.759501 14.56693
vt 7.874016 12.82018
vt -7.874016 12.82018
vt 7.874016 14.00128
vt -7.874016 14.00128
vt -7.874016 7.794209
vt -7.874016 13.87307
vt 7.874016 7.794209
vt 7.874016 13.87307

usemtl border

f 3/3/1 2/2/1 1/1/1
f 2/2/1 3/3/1 4/4/1
f 2/7/2 5/6/2 1/5/2
f 5/6/2 2/7/2 6/8/2
f 9/11/3 8/10/3 7/9/3
f 8/10/3 9/11/3 10/12/3
f 11/15/2 8/14/2 10/13/2
f 8/14/2 11/15/2 12/16/2
f 6/19/4 4/18/4 13/17/4
f 4/18/4 6/19/4 2/20/4
f 11/20/4 14/17/4 12/19/4
f 14/17/4 11/20/4 15/18/4
f 9/23/1 11/22/1 10/21/1
f 11/22/1 9/23/1 15/24/1
f 14/27/5 8/26/5 12/25/5
f 8/26/5 14/27/5 7/28/5
f 13/31/5 5/30/5 6/29/5
f 5/30/5 13/31/5 16/32/5
f 3/11/3 5/33/3 16/9/3
f 5/33/3 3/11/3 1/34/3

usemtl roof

f 19/37/3 18/36/3 17/35/3
f 18/36/3 19/37/3 16/9/3
f 16/9/3 19/37/3 3/11/3
f 3/11/3 19/37/3 20/38/3
f 21/41/6 3/40/6 20/39/6
f 3/40/6 21/41/6 4/42/6
f 4/42/6 21/41/6 13/43/6
f 13/43/6 21/41/6 9/44/6
f 9/44/6 21/41/6 15/45/6
f 7/46/6 13/43/6 9/44/6
f 22/47/6 13/43/6 7/46/6
f 18/48/6 13/43/6 22/47/6
f 13/43/6 18/48/6 16/49/6
f 22/47/6 7/46/6 14/50/6
f 19/53/1 21/52/1 20/51/1
f 21/52/1 19/53/1 23/54/1
f 14/17/4 24/56/4 22/55/4
f 24/56/4 14/17/4 23/57/4
f 23/57/4 14/17/4 15/18/4
f 23/57/4 15/18/4 21/58/4
f 24/61/5 18/60/5 22/59/5
f 18/60/5 24/61/5 17/62/5
f 24/65/7 19/64/7 17/63/7
f 19/64/7 24/65/7 23/66/7

