# Created by Kenney (www.kenney.nl)

mtllib detail_overhangWide.mtl

g detail_overhangWide

v -0.22 0.4 0.08
v -0.22 0.35 0.08
v -0.22 0.4 0.25
v -0.22 0.35 0.25
v 0.72 0.35 0.08
v 0.72 0.4 0.08
v 0.72 0.35 0.25
v 0.72 0.4 0.25
v -0.25 0.3 0.08
v -0.25 0.4 0.08
v -0.25 0.3 0.25
v -0.25 0.4 0.25
v 0.75 0.3 0.08
v 0.72 0.3 0.11
v 0.75 0.3 0.25
v 0.7412132 0.3 0.05878679
v 0.69 0.3 0.11
v -0.19 0.3 0.11
v 0.69 0.3 0.08
v -0.22 0.3 0.11
v -0.22 0.3 0.08
v -0.2412132 0.3 0.05878679
v 0.72 0.3 0.05
v 0.72 0.3 0.08
v -0.22 0.3 0.05
v -0.19 0.3 0.08
v 0.75 0.4 0.25
v 0.72 -3.159169E-18 0.11
v 0.72 -3.159169E-18 0.08
v 0.69 -3.159169E-18 0.11
v 0.69 -3.159169E-18 0.08
v -0.22 0.4 0.05
v 0.72 0.4 0.05
v -0.19 8.707976E-17 0.11
v -0.19 8.707976E-17 0.08
v -0.22 8.707976E-17 0.11
v -0.22 8.707976E-17 0.08
v -0.2412132 0.4 0.05878679
v 0.75 0.4 0.08
v 0.7412132 0.4 0.05878679

vn 1 0 0
vn -1 0 0
vn 0 -1 0
vn 0 0 1
vn 0 0 -1
vn 0 1 0
vn 0.3826834 0 -0.9238795
vn 0.7071068 0 -0.7071068
vn 0.9238795 0 -0.3826834
vn -0.7071068 0 -0.7071068
vn -0.9238795 0 -0.3826834
vn -0.3826834 0 -0.9238795

vt 0 0
vt 4.330709 11.81102
vt 4.330709 3.428337E-15
vt 3.149606 11.81102
vt -4.330709 -1.243767E-16
vt -4.330709 11.81102
vt -3.149606 -1.243767E-16
vt 8.661417 9.84252
vt 8.661417 3.149606
vt -28.34646 9.84252
vt -28.34646 11.81102
vt -27.16535 11.81102
vt -28.34646 -1.243767E-16
vt -4.330709 3.428337E-15
vt -3.149606 3.428337E-15
vt 28.34646 -1.243767E-16
vt 27.16535 -1.243767E-16
vt 28.34646 11.81102
vt 27.16535 11.81102
vt 3.149606 3.428337E-15
vt -3.149606 11.81102
vt 8.661417 3.428337E-15
vt 7.480315 3.428337E-15
vt 8.661417 11.81102
vt 7.480315 11.81102
vt -28.34646 3.149606
vt 3.149606 -1.243767E-16
vt 4.330709 -1.243767E-16
vt -27.16535 -1.243767E-16
vt -7.480315 3.428337E-15
vt -8.661417 3.428337E-15
vt -7.480315 11.81102
vt -8.661417 11.81102

usemtl _defaultMat

f 3/1/1 2/1/1 1/1/1
f 2/1/1 3/1/1 4/1/1
f 7/1/2 6/1/2 5/1/2
f 6/1/2 7/1/2 8/1/2
f 11/4/2 10/3/2 9/2/2
f 10/4/2 11/3/2 12/2/2
f 15/7/3 14/6/3 13/5/3
f 14/7/3 15/6/3 11/5/3
f 13/7/3 14/6/3 16/5/3
f 14/7/3 11/6/3 17/5/3
f 19/7/3 11/6/3 18/5/3
f 18/7/3 11/6/3 20/5/3
f 17/7/3 11/6/3 19/5/3
f 20/7/3 11/6/3 21/5/3
f 21/7/3 11/6/3 22/5/3
f 22/7/3 11/6/3 9/5/3
f 16/7/3 24/6/3 23/5/3
f 24/7/3 16/6/3 14/5/3
f 23/7/3 24/6/3 19/5/3
f 23/7/3 19/6/3 25/5/3
f 25/7/3 19/6/3 26/5/3
f 26/7/3 19/6/3 18/5/3
f 25/7/3 26/6/3 21/5/3
f 25/7/3 21/6/3 22/5/3
f 6/10/4 2/9/4 5/8/4
f 2/10/4 6/9/4 1/8/4
f 15/10/4 7/9/4 11/8/4
f 7/10/4 15/9/4 27/8/4
f 7/10/4 27/9/4 8/8/4
f 11/10/4 4/9/4 12/8/4
f 4/10/4 11/9/4 7/8/4
f 12/10/4 4/9/4 3/8/4
f 30/10/3 29/9/3 28/8/3
f 29/10/3 30/9/3 31/8/3
f 32/10/5 23/9/5 25/8/5
f 23/10/5 32/9/5 33/8/5
f 36/13/3 35/12/3 34/11/3
f 35/13/3 36/12/3 37/11/3
f 32/15/6 6/6/6 33/14/6
f 6/15/6 32/6/6 1/14/6
f 1/15/6 32/6/6 38/14/6
f 1/15/6 38/6/6 3/14/6
f 3/15/6 38/6/6 12/14/6
f 12/15/6 38/6/6 10/14/6
f 40/15/6 27/6/6 39/14/6
f 27/15/6 40/6/6 8/14/6
f 8/15/6 40/6/6 33/14/6
f 8/15/6 33/6/6 6/14/6
f 27/15/1 13/6/1 39/14/1
f 13/15/1 27/6/1 15/14/1
f 33/15/7 16/6/8 23/14/7
f 16/15/8 33/6/7 40/14/8
f 39/15/9 16/6/8 40/14/8
f 16/15/8 39/6/9 13/14/9
f 9/15/11 38/6/10 22/14/10
f 38/15/10 9/6/11 10/14/11
f 38/15/10 25/6/12 22/14/10
f 25/15/12 38/6/10 32/14/12

usemtl door

f 14/18/4 30/17/4 28/16/4
f 30/17/4 14/18/4 17/19/4
f 36/3/2 21/4/2 37/20/2
f 21/4/2 36/3/2 20/2/2
f 14/6/1 29/7/1 24/21/1
f 29/7/1 14/6/1 28/5/1
f 21/24/5 35/23/5 37/22/5
f 35/23/5 21/24/5 26/25/5
f 2/9/6 7/10/6 5/26/6
f 7/10/6 2/9/6 4/8/6
f 30/28/2 19/4/2 31/27/2
f 19/4/2 30/28/2 17/2/2
f 19/12/5 29/13/5 31/29/5
f 29/13/5 19/12/5 24/11/5
f 18/32/4 36/31/4 34/30/4
f 36/31/4 18/32/4 20/33/4
f 18/6/1 35/15/1 26/21/1
f 35/15/1 18/6/1 34/14/1

