# Created by Kenney (www.kenney.nl)

mtllib low_buildingH.mtl

g low_buildingH

v -0.25 0 0.25
v -0.25 0 -0.25
v 0.25 0 0.25
v 0.25 0 -0.25
v -0.25 0.5 0.25
v 0.25 0.5 0.25
v 0.25 0.5 -0.25
v -0.25 0.5 -0.25
v 0.2 0.5 -0.2
v -0.2 0.5 -0.2
v 0.2 0.65 -0.2
v -0.2 0.65 -0.2
v 0.2 0.5 0.2
v 0.2 0.65 0.2
v -0.2 0.5 0.2
v -0.2 0.65 0.2
v -0.15 0.7 0.15
v -0.1 0.7 -0.1
v -0.15 0.7 -0.15
v 0.15 0.7 -0.15
v 0.1 0.7 -0.1
v 0.1 0.7 0.1
v 0.15 0.7 0.15
v -0.1 0.7 0.1
v -0.1 0.65 -0.1
v 0.1 0.65 -0.1
v 0.1 0.65 0.1
v -0.1 0.65 0.1

vn 0 -0.5 0
vn 0 0 0.5
vn 0.5 0 0
vn 0 0 -0.5
vn -0.5 0 0
vn 0 0.5 0
vn 0 0.3535534 -0.3535534
vn 0.3535534 0.3535534 0
vn -0.3535534 0.3535534 0
vn 0 0.3535534 0.3535534

vt 0 0
vt 19.68504 -19.68504
vt 15.74803 15.74803
vt 19.68504 19.68504
vt -19.68504 19.68504
vt -15.74803 -15.74803
vt -19.68504 -19.68504
vt 15.74803 -15.74803
vt -15.74803 15.74803
vt -7.874016 -7.874016
vt -7.874016 7.874016
vt 7.874016 -7.874016
vt 7.874016 7.874016

usemtl _defaultMat

f 1/1/1 2/1/1 3/1/1
f 4/1/1 3/1/1 2/1/1
f 1/2/2 3/3/2 5/4/2
f 6/2/2 5/3/2 3/4/2
f 4/2/3 7/3/3 3/4/3
f 6/2/3 3/3/3 7/4/3
f 4/2/4 2/3/4 7/4/4
f 8/2/4 7/3/4 2/4/4
f 8/2/5 2/3/5 5/4/5
f 1/2/5 5/3/5 2/4/5
f 9/2/4 10/3/4 11/4/4
f 12/2/4 11/3/4 10/4/4
f 9/2/3 11/3/3 13/4/3
f 14/2/3 13/3/3 11/4/3
f 15/2/2 13/3/2 16/4/2
f 14/2/2 16/3/2 13/4/2
f 17/2/6 18/3/6 19/4/6
f 20/2/6 19/3/6 18/4/6
f 21/2/6 20/3/6 18/4/6
f 22/2/6 20/3/6 21/4/6
f 23/2/6 24/3/6 17/4/6
f 18/2/6 17/3/6 24/4/6
f 22/2/6 24/3/6 23/4/6
f 20/2/6 22/3/6 23/4/6
f 11/2/7 12/3/7 20/4/7
f 19/2/7 20/3/7 12/4/7
f 20/2/8 23/3/8 11/4/8
f 14/2/8 11/3/8 23/4/8
f 16/2/6 25/3/6 12/4/6
f 11/2/6 12/3/6 25/4/6
f 26/2/6 11/3/6 25/4/6
f 27/2/6 11/3/6 26/4/6
f 14/2/6 28/3/6 16/4/6
f 25/2/6 16/3/6 28/4/6
f 27/2/6 28/3/6 14/4/6
f 11/2/6 27/3/6 14/4/6
f 12/2/5 10/3/5 16/4/5
f 15/2/5 16/3/5 10/4/5
f 12/2/9 16/3/9 19/4/9
f 17/2/9 19/3/9 16/4/9
f 16/2/10 14/3/10 17/4/10
f 23/2/10 17/3/10 14/4/10
f 25/2/2 26/3/2 18/4/2
f 21/2/2 18/3/2 26/4/2
f 21/2/5 26/3/5 22/4/5
f 27/2/5 22/3/5 26/4/5
f 27/2/4 28/3/4 22/4/4
f 24/2/4 22/3/4 28/4/4
f 25/2/3 18/3/3 28/4/3
f 24/2/3 28/3/3 18/4/3

usemtl border

f 5/5/6 10/6/6 8/7/6
f 7/2/6 8/7/6 10/6/6
f 9/8/6 7/2/6 10/6/6
f 13/3/6 7/2/6 9/8/6
f 10/6/6 5/5/6 15/9/6
f 6/4/6 15/9/6 5/5/6
f 13/3/6 15/9/6 6/4/6
f 7/2/6 13/3/6 6/4/6
f 25/10/6 28/11/6 26/12/6
f 27/13/6 26/12/6 28/11/6

