# Created by Kenney (www.kenney.nl)

mtllib wall_windowA.mtl

g wall_windowA

v 0.2 0.05 0
v -0.1 0.1 0
v -0.2 0.05 0
v -0.2 0.4 0
v -0.1 0.3 0
v 0.1 0.3 0
v 0.1 0.1 0
v 0.2 0.4 0
v -0.2 0 0
v 0.2 0 0
v 0.07 0.13 0.02
v -0.05 0.15 0.02
v -0.07 0.13 0.02
v -0.07 0.27 0.02
v -0.05 0.25 0.02
v 0.05 0.25 0.02
v 0.05 0.15 0.02
v 0.07 0.27 0.02
v -0.07 0.13 0
v -0.07 0.27 0
v 0.07 0.27 0
v 0.07 0.13 0

vn 0 0 -1
vn -1 0 0
vn 0 -1 0
vn 1 0 0
vn 0 1 0

vt 0 0
vt 7.874016 0
vt -7.874016 0
vt 7.874016 1.968504
vt -7.874016 1.968504
vt -2.755906 5.11811
vt 1.968504 5.905512
vt 2.755906 5.11811
vt 2.755906 10.62992
vt 1.968504 9.84252
vt -1.968504 9.84252
vt -1.968504 5.905512
vt -2.755906 10.62992
vt -3.937008 3.937008
vt 3.937008 3.937008
vt 3.937008 11.81102
vt -3.937008 11.81102
vt -1.98952E-13 5.11811
vt -1.98952E-13 10.62992
vt 0.7874016 5.11811
vt 0.7874016 10.62992
vt 2.755906 0
vt -2.755906 0
vt 2.755906 0.7874016
vt -2.755906 0.7874016
vt -0.7874016 10.62992
vt -0.7874016 5.11811

usemtl _defaultMat

f 3/1/1 2/1/1 1/1/1
f 2/1/1 3/1/1 4/1/1
f 2/1/1 4/1/1 5/1/1
f 5/1/1 4/1/1 6/1/1
f 7/1/1 1/1/1 2/1/1
f 1/1/1 7/1/1 8/1/1
f 8/1/1 7/1/1 6/1/1
f 8/1/1 6/1/1 4/1/1

usemtl border

f 3/4/1 10/3/1 9/2/1
f 10/3/1 3/4/1 1/5/1
f 13/8/1 12/7/1 11/6/1
f 12/7/1 13/8/1 14/9/1
f 12/7/1 14/9/1 15/10/1
f 15/10/1 14/9/1 16/11/1
f 17/12/1 11/6/1 12/7/1
f 11/6/1 17/12/1 18/13/1
f 18/13/1 17/12/1 16/11/1
f 18/13/1 16/11/1 14/9/1
f 2/15/1 19/8/1 7/14/1
f 19/8/1 2/15/1 5/16/1
f 19/8/1 5/16/1 20/9/1
f 20/9/1 5/16/1 21/13/1
f 22/6/1 7/14/1 19/8/1
f 7/14/1 22/6/1 6/17/1
f 6/17/1 22/6/1 21/13/1
f 6/17/1 21/13/1 5/16/1
f 11/20/2 21/19/2 22/18/2
f 21/19/2 11/20/2 18/21/2
f 18/24/3 20/23/3 21/22/3
f 20/23/3 18/24/3 14/25/3
f 14/26/4 19/18/4 20/19/4
f 19/18/4 14/26/4 13/27/4
f 19/22/5 11/25/5 22/23/5
f 11/25/5 19/22/5 13/24/5

usemtl window

f 15/10/1 17/12/1 12/7/1
f 17/12/1 15/10/1 16/11/1

