# Created by Kenney (www.kenney.nl)

mtllib wall_windowD.mtl

g wall_windowD

v 0.2 0.05 0
v -0.15 0.1 0
v -0.2 0.05 0
v -0.2 0.4 0
v -0.15 0.27 0
v -0.15 0.3 0
v 0.15 0.3 0
v 0.15 0.1 0
v 0.2 0.4 0
v 0.15 0.27 0
v -0.2 0 0
v 0.2 0 0
v 0.12 0.13 0.02
v -0.1 0.15 0.02
v -0.12 0.13 0.02
v -0.12 0.27 0.02
v -0.1 0.19 0.02
v -0.1 0.21 0.02
v 0.1 0.19 0.02
v -0.1 0.25 0.02
v 0.1 0.25 0.02
v 0.1 0.15 0.02
v 0.12 0.27 0.02
v 0.1 0.21 0.02
v 0.12 0.13 0
v 0.12 0.27 0
v -0.12 0.27 0
v -0.15 0.27 -0.02
v 0.15 0.27 -0.02
v -0.12 0.13 0
v -0.15 0.3 -0.02
v 0.15 0.3 -0.02

vn 0 0 -1
vn -1 0 0
vn 0 -1 0
vn 1 0 0
vn 0 1 0

vt 0 0
vt 7.874016 0
vt -7.874016 0
vt 7.874016 1.968504
vt -7.874016 1.968504
vt -4.72441 5.11811
vt 3.937008 5.905512
vt 4.72441 5.11811
vt 4.72441 10.62992
vt 3.937008 7.480315
vt 3.937008 8.267716
vt -3.937008 7.480315
vt 3.937008 9.84252
vt -3.937008 9.84252
vt -3.937008 5.905512
vt -4.72441 10.62992
vt -3.937008 8.267716
vt 0 5.11811
vt 0 10.62992
vt 0.7874016 5.11811
vt 0.7874016 10.62992
vt 4.72441 0.7874016
vt 4.72441 0
vt -4.72441 0.7874016
vt -4.72441 0
vt -5.905512 -0.7874016
vt 5.905512 -0.7874016
vt 5.905512 0
vt -5.905512 0
vt -0.7874016 10.62992
vt -0.7874016 5.11811
vt -5.905512 3.937008
vt 5.905512 3.937008
vt 5.905512 10.62992
vt -5.905512 10.62992
vt 5.905512 11.81102
vt -5.905512 11.81102
vt -0.7874016 11.81102
vt 0 11.81102
vt 0.7874016 11.81102

usemtl _defaultMat

f 3/1/1 2/1/1 1/1/1
f 2/1/1 3/1/1 4/1/1
f 2/1/1 4/1/1 5/1/1
f 5/1/1 4/1/1 6/1/1
f 6/1/1 4/1/1 7/1/1
f 8/1/1 1/1/1 2/1/1
f 1/1/1 8/1/1 9/1/1
f 9/1/1 7/1/1 4/1/1
f 9/1/1 8/1/1 10/1/1
f 9/1/1 10/1/1 7/1/1

usemtl border

f 3/4/1 12/3/1 11/2/1
f 12/3/1 3/4/1 1/5/1
f 15/8/1 14/7/1 13/6/1
f 14/7/1 15/8/1 16/9/1
f 14/7/1 16/9/1 17/10/1
f 17/10/1 16/9/1 18/11/1
f 17/10/1 18/11/1 19/12/1
f 18/11/1 16/9/1 20/13/1
f 20/13/1 16/9/1 21/14/1
f 22/15/1 13/6/1 14/7/1
f 13/6/1 22/15/1 23/16/1
f 23/16/1 22/15/1 19/12/1
f 23/16/1 21/14/1 16/9/1
f 23/16/1 19/12/1 24/17/1
f 24/17/1 19/12/1 18/11/1
f 23/16/1 24/17/1 21/14/1
f 13/20/2 26/19/2 25/18/2
f 26/19/2 13/20/2 23/21/2
f 16/24/3 26/23/3 23/22/3
f 27/25/3 26/23/3 16/24/3
f 28/26/3 26/23/3 27/25/3
f 29/27/3 26/23/3 28/26/3
f 26/23/3 29/27/3 10/28/3
f 28/26/3 27/25/3 5/29/3
f 16/30/4 30/18/4 27/19/4
f 30/18/4 16/30/4 15/31/4
f 30/23/5 13/24/5 25/25/5
f 13/24/5 30/23/5 15/22/5
f 2/33/1 30/8/1 8/32/1
f 30/8/1 2/33/1 5/34/1
f 30/8/1 5/34/1 27/9/1
f 25/6/1 8/32/1 30/8/1
f 8/32/1 25/6/1 10/35/1
f 10/35/1 25/6/1 26/16/1
f 31/36/1 29/35/1 28/34/1
f 29/35/1 31/36/1 32/37/1
f 5/19/2 31/38/2 28/30/2
f 31/38/2 5/19/2 6/39/2
f 31/27/5 7/29/5 32/26/5
f 7/29/5 31/27/5 6/28/5
f 7/39/4 29/21/4 32/40/4
f 29/21/4 7/39/4 10/19/4

usemtl window

f 20/13/1 24/17/1 18/11/1
f 24/17/1 20/13/1 21/14/1
f 17/10/1 22/15/1 14/7/1
f 22/15/1 17/10/1 19/12/1

