# Created by Kenney (www.kenney.nl)

mtllib wall_windowE.mtl

g wall_windowE

v -0.12 0.27 0
v -0.12 0 0
v -0.12 0.27 0.02
v -0.12 0 0.02
v 0.12 0.27 0.02
v 0.12 0.27 0
v -0.2 0 0
v -0.2 0.05 0
v -0.15 0.05 0
v -0.15 0.3 0
v 0.15 0.3 0
v 0.15 0.05 0
v 0.12 0 0
v 0.2 0 0
v 0.2 0.05 0
v 0.12 0 0.02
v -0.2 0.4 0
v 0.2 0.4 0
v -0.1 0.05 0.02
v -0.1 0.25 0.02
v 0.1 0.25 0.02
v 0.1 0.05 0.02

vn 1 0 0
vn 0 -1 0
vn 0 0 -1
vn -1 0 0

vt 0 10.62992
vt 0 0
vt -0.7874016 10.62992
vt -0.7874016 0
vt 4.72441 0.7874016
vt 4.72441 0
vt -4.72441 0.7874016
vt -4.72441 0
vt 7.874016 0
vt 7.874016 1.968504
vt 5.905512 1.968504
vt 4.72441 10.62992
vt 5.905512 11.81102
vt -4.72441 10.62992
vt -5.905512 11.81102
vt -5.905512 1.968504
vt -7.874016 0
vt -7.874016 1.968504
vt 0.7874016 0
vt 0.7874016 10.62992
vt 3.937008 1.968504
vt 3.937008 9.84252
vt -3.937008 9.84252
vt -3.937008 1.968504

usemtl border

f 3/3/1 2/2/1 1/1/1
f 2/2/1 3/3/1 4/4/1
f 3/7/2 6/6/2 5/5/2
f 6/6/2 3/7/2 1/8/2
f 8/10/3 2/6/3 7/9/3
f 2/6/3 8/10/3 9/11/3
f 2/6/3 9/11/3 1/12/3
f 1/12/3 9/11/3 10/13/3
f 1/12/3 10/13/3 6/14/3
f 11/15/3 6/14/3 10/13/3
f 12/16/3 6/14/3 11/15/3
f 12/16/3 13/8/3 6/14/3
f 13/8/3 12/16/3 14/17/3
f 14/17/3 12/16/3 15/18/3
f 16/19/4 6/1/4 13/2/4
f 6/1/4 16/19/4 5/20/4

usemtl _defaultMat

f 17/6/3 9/7/3 8/8/3
f 9/6/3 17/7/3 10/8/3
f 10/6/3 17/7/3 11/8/3
f 12/6/3 18/7/3 15/8/3
f 18/6/3 12/7/3 11/8/3
f 18/6/3 11/7/3 17/8/3

usemtl door

f 4/6/3 19/21/3 16/8/3
f 19/21/3 4/6/3 3/12/3
f 19/21/3 3/12/3 20/22/3
f 20/22/3 3/12/3 21/23/3
f 22/24/3 16/8/3 19/21/3
f 16/8/3 22/24/3 5/14/3
f 5/14/3 22/24/3 21/23/3
f 5/14/3 21/23/3 3/12/3

usemtl window

f 20/22/3 22/24/3 19/21/3
f 22/24/3 20/22/3 21/23/3

