# Created by Kenney (www.kenney.nl)

mtllib wall_windowB.mtl

g wall_windowB

v -0.2 0 0
v 0.2 0 0
v -0.2 0.05 0
v 0.2 0.05 0
v 0.07 0.27 0.02
v 0.07 0.27 0
v -0.07 0.27 0.02
v -0.07 0.27 0
v 0.07 0.09 0.02
v -0.05 0.11 0.02
v -0.07 0.09 0.02
v -0.05 0.17 0.02
v -0.05 0.19 0.02
v 0.05 0.17 0.02
v -0.05 0.25 0.02
v 0.05 0.25 0.02
v 0.05 0.11 0.02
v 0.05 0.19 0.02
v 0.07 0.09 0
v -0.1 0.09 0
v -0.07 0.09 0
v -0.1 0.3 0
v 0.1 0.3 0
v 0.1 0.09 0
v -0.1 0.06 -0.02
v 0.1 0.06 -0.02
v -0.1 0.09 -0.02
v 0.1 0.09 -0.02
v -0.1 0.06 0
v 0.1 0.06 0
v -0.2 0.4 0
v 0.2 0.4 0

vn 0 0 -1
vn 0 -1 0
vn -1 0 0
vn 1 0 0
vn 0 1 0

vt 7.874016 0
vt -7.874016 0
vt 7.874016 1.968504
vt -7.874016 1.968504
vt 2.755906 0.7874016
vt 2.755906 0
vt -2.755906 0.7874016
vt -2.755906 0
vt -2.755906 3.543307
vt 1.968504 4.330709
vt 2.755906 3.543307
vt 2.755906 10.62992
vt 1.968504 6.692914
vt 1.968504 7.480315
vt -1.968504 6.692914
vt 1.968504 9.84252
vt -1.968504 9.84252
vt -1.968504 4.330709
vt -2.755906 10.62992
vt -1.968504 7.480315
vt 0 3.543307
vt 0 10.62992
vt 0.7874016 3.543307
vt 0.7874016 10.62992
vt 3.937008 3.543307
vt 3.937008 11.81102
vt -3.937008 11.81102
vt -3.937008 3.543307
vt -0.7874016 10.62992
vt -0.7874016 3.543307
vt 3.937008 2.362205
vt -3.937008 2.362205
vt -0.7874016 2.362205
vt 0 2.362205
vt -3.937008 -0.7874016
vt -3.937008 0
vt 3.937008 -0.7874016
vt 3.937008 0
vt 0.7874016 2.362205

usemtl border

f 3/3/1 2/2/1 1/1/1
f 2/2/1 3/3/1 4/4/1
f 7/7/2 6/6/2 5/5/2
f 6/6/2 7/7/2 8/8/2
f 11/11/1 10/10/1 9/9/1
f 10/10/1 11/11/1 7/12/1
f 10/10/1 7/12/1 12/13/1
f 12/13/1 7/12/1 13/14/1
f 12/13/1 13/14/1 14/15/1
f 13/14/1 7/12/1 15/16/1
f 15/16/1 7/12/1 16/17/1
f 17/18/1 9/9/1 10/10/1
f 9/9/1 17/18/1 5/19/1
f 5/19/1 17/18/1 14/15/1
f 5/19/1 16/17/1 7/12/1
f 5/19/1 14/15/1 18/20/1
f 18/20/1 14/15/1 13/14/1
f 5/19/1 18/20/1 16/17/1
f 9/23/3 6/22/3 19/21/3
f 6/22/3 9/23/3 5/24/3
f 22/26/1 21/11/1 20/25/1
f 21/11/1 22/26/1 8/12/1
f 8/12/1 22/26/1 6/19/1
f 23/27/1 6/19/1 22/26/1
f 24/28/1 6/19/1 23/27/1
f 6/19/1 24/28/1 19/9/1
f 7/29/4 21/21/4 8/22/4
f 21/21/4 7/29/4 11/30/4
f 27/25/1 26/32/1 25/31/1
f 26/32/1 27/25/1 28/28/1
f 29/34/3 27/30/3 25/33/3
f 27/30/3 29/34/3 20/21/3
f 27/37/5 24/36/5 28/35/5
f 24/36/5 27/37/5 19/8/5
f 19/8/5 27/37/5 9/7/5
f 9/7/5 27/37/5 21/6/5
f 21/6/5 27/37/5 20/38/5
f 11/5/5 9/7/5 21/6/5
f 24/21/4 26/39/4 28/23/4
f 26/39/4 24/21/4 30/34/4
f 29/36/2 26/37/2 30/38/2
f 26/37/2 29/36/2 25/35/2

usemtl window

f 12/13/1 17/18/1 10/10/1
f 17/18/1 12/13/1 14/15/1
f 15/16/1 18/20/1 13/14/1
f 18/20/1 15/16/1 16/17/1

usemtl _defaultMat

f 3/37/1 29/36/1 4/35/1
f 29/37/1 3/36/1 31/35/1
f 29/37/1 31/36/1 20/35/1
f 20/37/1 31/36/1 22/35/1
f 22/37/1 31/36/1 23/35/1
f 4/37/1 30/36/1 32/35/1
f 30/37/1 4/36/1 29/35/1
f 32/37/1 30/36/1 24/35/1
f 32/37/1 24/36/1 23/35/1
f 32/37/1 23/36/1 31/35/1

